<svg width="24" height="24" viewBox="0 0 24 24" fill="none" xmlns="http://www.w3.org/2000/svg">
<path d="M12.7099 12L9.16993 15.54C8.98368 15.7274 8.87914 15.9808 8.87914 16.245C8.87914 16.5092 8.98368 16.7626 9.16993 16.95C9.2629 17.0437 9.3735 17.1181 9.49536 17.1689C9.61722 17.2197 9.74792 17.2458 9.87993 17.2458C10.0119 17.2458 10.1427 17.2197 10.2645 17.1689C10.3864 17.1181 10.497 17.0437 10.5899 16.95L14.8299 12.71C14.9237 12.617 14.9981 12.5064 15.0488 12.3846C15.0996 12.2627 15.1257 12.132 15.1257 12C15.1257 11.868 15.0996 11.7373 15.0488 11.6154C14.9981 11.4936 14.9237 11.383 14.8299 11.29L10.5899 6.99999C10.4965 6.90731 10.3857 6.83398 10.2638 6.78422C10.142 6.73446 10.0115 6.70923 9.87993 6.70999C9.74833 6.70923 9.61787 6.73446 9.49603 6.78422C9.37419 6.83398 9.26337 6.90731 9.16993 6.99999C8.98368 7.18735 8.87914 7.4408 8.87914 7.70499C8.87914 7.96918 8.98368 8.22263 9.16993 8.40999L12.7099 12Z" fill="black"/>
</svg>
