<svg width="24" height="24" viewBox="0 0 24 24" fill="none" xmlns="http://www.w3.org/2000/svg">
<path d="M12.0001 11.29L15.5401 14.83C15.7274 15.0163 15.9809 15.1208 16.2451 15.1208C16.5092 15.1208 16.7627 15.0163 16.9501 14.83C17.0438 14.737 17.1182 14.6264 17.1689 14.5046C17.2197 14.3827 17.2458 14.252 17.2458 14.12C17.2458 13.988 17.2197 13.8573 17.1689 13.7354C17.1182 13.6136 17.0438 13.503 16.9501 13.41L12.7101 9.17C12.6171 9.07628 12.5065 9.00188 12.3846 8.95111C12.2628 8.90035 12.1321 8.87421 12.0001 8.87421C11.868 8.87421 11.7373 8.90035 11.6155 8.95111C11.4936 9.00188 11.383 9.07628 11.2901 9.17L7.00005 13.41C6.90737 13.5034 6.83405 13.6143 6.78428 13.7361C6.73452 13.8579 6.70929 13.9884 6.71005 14.12C6.70929 14.2516 6.73452 14.3821 6.78428 14.5039C6.83405 14.6257 6.90737 14.7366 7.00005 14.83C7.18741 15.0163 7.44087 15.1208 7.70505 15.1208C7.96924 15.1208 8.22269 15.0163 8.41005 14.83L12.0001 11.29Z" fill="black"/>
</svg>
